<?xml version="1.0" encoding="utf-8"?>
<svg viewBox="0 0 500 500" xmlns="http://www.w3.org/2000/svg" xmlns:bx="https://boxy-svg.com">
  <path style="paint-order: stroke; stroke-width: 4px; stroke: rgb(0, 0, 0); fill: none;" d="M 394.435 170.736 L 401.695 174.44066666666666 C 408.955 178.1453333333333 423.47499999999997 185.55466666666666 430.08200000000005 213.39499999999998 C 436.689 241.23533333333333 435.383 289.50666666666666 434.73 313.64233333333334 L 434.077 337.778" bx:d="M 394.435 170.736 U 437.995 192.964 U 434.077 337.778 1@3bc10b9e">
  </path>
  <path style="stroke: rgb(0, 0, 0); fill: rgb(255, 255, 255);" d="M 82.634 162.154 L 115.514 332.418 L 369.894 334.251 L 405.331 163.777 L 82.634 162.154 Z">
  </path>
  <ellipse style="fill: rgb(255, 246, 246); stroke: rgb(180, 180, 211); stroke-width: 6px; stroke-linecap: round; stroke-miterlimit: 3; stroke-dashoffset: -9px;" cx="243.833" cy="162.678" rx="161.104" ry="16.798">
  </ellipse>
  <rect x="242.091" y="181.36" width="61.012" height="152.214" style="stroke: rgb(0, 0, 0); stroke-width: 0px; fill: rgb(36, 36, 219);">
  </rect>
  <path style="stroke: rgb(0, 0, 0); stroke-width: 4px; fill: none;" d="M 89.388 176.062 L 81.96533333333333 180.244 C 74.54266666666668 184.42600000000002 59.697333333333326 192.79 70.45633333333333 204.75316666666666 C 81.21533333333333 216.71633333333332 117.57866666666666 232.27866666666668 135.76033333333334 240.05983333333333 L 153.942 247.841" bx:d="M 89.388 176.062 U 44.852 201.154 U 153.942 247.841 1@4293dca2">
  </path>
  <path d="M 246.19 57.012 C 261.814 57.01 285.766 102.849 288.709 108.485 C 291.76 114.326 302.803 135.857 293.93 143.015 C 293.439 143.412 292.942 143.802 292.441 144.185 C 291.451 145.257 290.329 146.31 289.293 147.241 C 287.979 148.422 286.571 149.571 285.017 150.624 C 282.134 152.961 278.065 155.937 274.638 157.715 C 270.012 160.114 264.549 162.104 259.759 162.9 C 255.93 163.536 251.228 163.516 248.212 162.997 C 247.192 163.216 246.172 163.426 245.153 163.627 C 240.339 164.575 235.158 162.683 230.773 160.48 C 213.752 151.929 193.298 145.792 189.868 125.628 C 189.036 120.734 195.008 111.365 198.433 107.932 C 207.176 99.168 234.653 57.013 246.19 57.012 Z" style="stroke: rgb(0, 0, 0); fill: rgb(255, 67, 67); stroke-miterlimit: 1; stroke-opacity: 0.23; stroke-width: 0px;" transform="matrix(-0.99991, 0.013443, -0.013443, -0.99991, 488.564341, 217.605608)">
  </path>
  <g>
    <path style="stroke: rgb(0, 0, 0);" d="M 224.27383333333333 101.80649999999999 C 228.1816666666667 105.89833333333333 232.52233333333334 109.29666666666667 236.24383333333336 107.0795 C 239.96533333333332 104.86233333333332 243.06766666666667 97.02966666666667 242.09699999999998 92.757 C 241.1263333333333 88.48433333333332 236.08266666666665 87.77166666666666 230.62366666666665 87.59616666666666 C 225.16466666666665 87.42066666666666 219.29033333333334 87.78233333333333 218.09066666666664 90.35583333333334 C 216.891 92.92933333333333 220.36599999999999 97.71466666666667 224.27383333333333 101.80649999999999" bx:d="M 223.841 102.5 U 236.863 112.695 U 246.17 89.197 U 231.039 87.059 U 213.416 88.144 Z 1@e3368408"/>
    <path style="stroke: rgb(0, 0, 0);" d="M 269.151 102.07966666666668 C 273.542 98.19200000000001 277.77 94.23200000000001 274.49066666666664 91.72716666666668 C 271.21133333333336 89.22233333333334 260.42466666666667 88.17266666666667 254.999 89.709 C 249.57333333333335 91.24533333333333 249.50866666666664 95.36766666666666 250.511 99.78016666666666 C 251.51333333333332 104.19266666666665 253.58266666666665 108.89533333333333 256.89433333333335 109.339 C 260.20599999999996 109.78266666666667 264.76 105.96733333333333 269.151 102.07966666666668" bx:d="M 269.314 102.152 U 281.998 90.272 U 249.638 87.123 U 249.444 99.49 U 255.652 113.598 Z 1@87d7fe24" bx:origin="-1.592 0.481"/>
  </g>
  <path style="stroke: rgb(0, 0, 0); fill: rgb(44, 139, 64);" d="M 236.072 48.529 C 235.132 48.529 232.23 39.553 229.284 34.5 C 224.631 26.52 219.562 21.315 219.604 23.349 C 219.69 27.505 223.796 34.169 224.914 40.909 C 226.33 49.456 224.598 57.618 221.983 55.371 C 221.472 54.932 219.432 52.297 214.713 50.126 C 210.057 47.984 202.59 46.542 201.501 48.103 C 200.337 49.772 206.562 50.789 210.201 53.294 C 213.618 55.646 214.409 59.553 214.985 59.251 C 217.062 58.162 213.765 64.194 214.124 65.662 C 215.23 70.182 218.671 75.237 218.671 75.237 C 220.22 76.214 225.931 70.286 227.76 70.99 C 229.836 71.79 228.244 76.79 230.478 77.586 C 231.917 78.099 234.699 72.24 236.337 72.525 C 238.337 72.872 238.923 79.356 240.972 79.95 C 242.58 80.416 244.041 72.871 245.756 72.822 C 246.166 76.117 249.054 80.197 252.095 80.462 C 255.577 80.765 255.239 76.046 256.998 72.823 C 258.332 70.377 262.063 79.034 264.567 76.227 C 266.07 74.542 263.892 70.857 264.641 66.62 C 265.984 59.023 264.128 55.899 260.331 54.011 C 258.143 52.923 262.603 48.334 267.873 46.022 C 273.137 43.712 279.21 43.679 279.463 43.291 C 280.231 42.117 272.159 41.365 264.512 43.782 C 258.482 45.688 252.574 50.702 252.455 51.203 C 251.956 53.294 261.007 30.013 261.007 30.013 C 258.326 29.357 244.142 49.127 244.142 49.127 C 242.589 48.939 243.296 23.945 241.683 23.859 C 239.713 23.754 235.543 48.381 235.543 48.381">
  </path>
  <g style="">
    <ellipse style="stroke: rgb(0, 0, 0); fill: rgb(239, 255, 64); stroke-width: 0px;" cx="208.321" cy="134.702" rx="1.27" ry="2.891" transform="matrix(0.988355, -0.152163, 0.152163, 0.988355, -27.424622, -0.553886)"/>
    <ellipse style="stroke: rgb(0, 0, 0); fill: rgb(239, 255, 64); stroke-width: 0px;" cx="194.318" cy="85.285" rx="1.144" ry="2.663" bx:origin="0.623 0.558"/>
    <ellipse style="stroke: rgb(0, 0, 0); fill: rgb(239, 255, 64); stroke-width: 0px;" cx="214.599" cy="146.051" rx="1.144" ry="2.663" transform="matrix(0.987256, -0.159141, 0.159141, 0.987256, -31.169928, 2.212522)"/>
    <ellipse style="stroke: rgb(0, 0, 0); fill: rgb(239, 255, 64); stroke-width: 0px;" cx="207.694" cy="123.947" rx="1.144" ry="2.663"/>
    <ellipse style="stroke: rgb(0, 0, 0); fill: rgb(239, 255, 64); stroke-width: 0px;" cx="226.443" cy="166.471" rx="0.881" ry="2.536" transform="matrix(0.991297, -0.131644, 0.131644, 0.991297, -32.400171, -3.946792)"/>
    <ellipse style="stroke: rgb(0, 0, 0); fill: rgb(239, 255, 64); stroke-width: 0px;" cx="231.3" cy="173.417" rx="0.823" ry="2.39" transform="matrix(0.969437, -0.245339, 0.245339, 0.969437, -47.952028, 28.717294)"/>
    <ellipse style="stroke: rgb(0, 0, 0); fill: rgb(239, 255, 64); stroke-width: 0px;" cx="236.478" cy="180.362" rx="0.835" ry="2.113" transform="matrix(0.993051, -0.117683, 0.117683, 0.993051, -31.426145, -5.798922)"/>
    <ellipse style="stroke: rgb(0, 0, 0); fill: rgb(239, 255, 64); stroke-width: 0px;" cx="208.321" cy="134.702" rx="0.823" ry="1.807" transform="matrix(0.988355, -0.152163, 0.152163, 0.988355, 2.053372, 50.292755)"/>
    <ellipse style="stroke: rgb(0, 0, 0); fill: rgb(239, 255, 64); stroke-width: 0px;" cx="208.321" cy="134.702" rx="0.717" ry="1.798" transform="matrix(0.988355, -0.152163, 0.152163, 0.988355, 6.413218, 55.893306)"/>
    <ellipse style="stroke: rgb(0, 0, 0); fill: rgb(239, 255, 64); stroke-width: 0px;" cx="208.321" cy="134.702" rx="0.83" ry="1.783" transform="matrix(0.99941, 0.034356, -0.034356, 0.99941, 30.393309, 5.327197)"/>
    <ellipse style="stroke: rgb(0, 0, 0); fill: rgb(239, 255, 64); stroke-width: 0px;" cx="236.478" cy="180.362" rx="0.835" ry="2.113" transform="matrix(0.993051, -0.117683, 0.117683, 0.993051, -26.743102, -8.228885)"/>
    <ellipse style="stroke: rgb(0, 0, 0); fill: rgb(239, 255, 64); stroke-width: 0px;" cx="236.478" cy="180.362" rx="0.789" ry="1.997" transform="matrix(0.993051, -0.117683, 0.117683, 0.993051, -21.53674, -14.45584)"/>
    <ellipse style="stroke: rgb(0, 0, 0); fill: rgb(239, 255, 64); stroke-width: 0px;" cx="236.478" cy="180.362" rx="0.835" ry="2.113" transform="matrix(0.994211, 0.107441, -0.107441, 0.994211, 9.937478, -68.442572)"/>
    <ellipse style="stroke: rgb(0, 0, 0); fill: rgb(239, 255, 64); stroke-width: 0px;" cx="231.3" cy="173.417" rx="0.823" ry="2.39" transform="matrix(0.986772, -0.162116, 0.162116, 0.986772, -26.461338, -4.684068)"/>
    <ellipse style="stroke: rgb(0, 0, 0); fill: rgb(239, 255, 64); stroke-width: 0px;" cx="231.3" cy="173.417" rx="0.828" ry="2.334" transform="matrix(0.99387, -0.110557, 0.110557, 0.99387, -27.227881, -17.555715)"/>
    <ellipse style="stroke: rgb(0, 0, 0); fill: rgb(239, 255, 64); stroke-width: 0px;" cx="236.478" cy="180.362" rx="0.835" ry="2.238" transform="matrix(0.999958, -0.00913, 0.0066, 0.999981, -12.105733, -57.733662)"/>
    <ellipse style="stroke: rgb(0, 0, 0); fill: rgb(239, 255, 64); stroke-width: 0px;" cx="231.3" cy="173.417" rx="0.875" ry="2.339" transform="matrix(0.997617, 0.068991, -0.068991, 0.997617, 21.11707, -66.848601)"/>
    <ellipse style="stroke: rgb(0, 0, 0); fill: rgb(239, 255, 64); stroke-width: 0px;" cx="208.321" cy="134.702" rx="0.969" ry="1.818" transform="matrix(0.99941, 0.034356, -0.034356, 0.99941, 32.938893, 10.600956)"/>
    <ellipse style="stroke: rgb(0, 0, 0); fill: rgb(239, 255, 64); stroke-width: 0px;" cx="208.321" cy="134.702" rx="0.786" ry="1.536" transform="matrix(0.988355, -0.152163, 0.152163, 0.988355, 10.98567, 57.645816)"/>
    <ellipse style="stroke: rgb(0, 0, 0); fill: rgb(239, 255, 64); stroke-width: 0px;" cx="208.321" cy="134.702" rx="0.915" ry="1.777" transform="matrix(0.988951, 0.148241, -0.148241, 0.988951, 55.52788, -2.35844)" bx:origin="0.492 0.566"/>
    <ellipse style="stroke: rgb(0, 0, 0); fill: rgb(239, 255, 64); stroke-width: 0px;" cx="208.321" cy="134.702" rx="0.817" ry="1.641" transform="matrix(0.988355, -0.152163, 0.152163, 0.988355, 20.439518, 54.357753)"/>
    <ellipse style="stroke: rgb(0, 0, 0); fill: rgb(239, 255, 64); stroke-width: 0px;" cx="208.321" cy="134.702" rx="0.892" ry="1.787" transform="matrix(0.999996, 0.002921, 0.028665, 1.000088, 31.517044, 12.554588)"/>
    <ellipse style="stroke: rgb(0, 0, 0); fill: rgb(239, 255, 64); stroke-width: 0px;" cx="208.321" cy="134.702" rx="0.851" ry="1.775" transform="matrix(0.99941, 0.034356, -0.034356, 0.99941, 36.831212, 12.139102)"/>
    <ellipse style="stroke: rgb(0, 0, 0); fill: rgb(239, 255, 64); stroke-width: 0px;" cx="208.321" cy="134.702" rx="0.88" ry="1.895" transform="matrix(0.99941, 0.034356, -0.034356, 0.99941, 46.667306, 5.11412)"/>
    <ellipse style="stroke: rgb(0, 0, 0); fill: rgb(239, 255, 64); stroke-width: 0px;" cx="208.321" cy="134.702" rx="0.938" ry="1.867" transform="matrix(0.993385, 0.114834, -0.263717, 0.976174, 81.598448, -2.597851)"/>
    <ellipse style="stroke: rgb(0, 0, 0); fill: rgb(239, 255, 64); stroke-width: 0px;" cx="208.321" cy="134.702" rx="0.773" ry="1.814" transform="matrix(0.99941, 0.034356, -0.034356, 0.99941, 41.679398, 18.860762)" bx:origin="0.442 0.418"/>
    <ellipse style="stroke: rgb(0, 0, 0); fill: rgb(239, 255, 64); stroke-width: 0px;" cx="208.321" cy="134.702" rx="1.001" ry="2.172" transform="matrix(0.99941, 0.034356, -0.034356, 0.99941, 39.301522, -7.931744)"/>
    <ellipse style="stroke: rgb(0, 0, 0); fill: rgb(239, 255, 64); stroke-width: 0px;" cx="208.321" cy="134.702" rx="0.807" ry="1.897" transform="matrix(0.986982, 0.16083, -0.16083, 0.986982, 75.377215, -19.734286)"/>
    <ellipse style="stroke: rgb(0, 0, 0); fill: rgb(239, 255, 64); stroke-width: 0px;" cx="208.321" cy="134.702" rx="0.807" ry="1.897" transform="matrix(0.986982, 0.16083, -0.16083, 0.986982, 78.535822, -28.278181)" bx:origin="0.536 0.515"/>
    <ellipse style="stroke: rgb(0, 0, 0); fill: rgb(239, 255, 64); stroke-width: 0px;" cx="208.321" cy="134.702" rx="0.807" ry="1.897" transform="matrix(0.986982, 0.16083, -0.16083, 0.986982, 84.555506, -33.911516)" bx:origin="0.536 0.515"/>
    <ellipse style="stroke: rgb(0, 0, 0); fill: rgb(239, 255, 64); stroke-width: 0px;" cx="208.321" cy="134.702" rx="0.807" ry="1.897" transform="matrix(0.986982, 0.16083, -0.16083, 0.986982, 89.721827, -41.632315)" bx:origin="0.536 0.515"/>
    <ellipse style="stroke: rgb(0, 0, 0); fill: rgb(239, 255, 64); stroke-width: 0px;" cx="208.321" cy="134.702" rx="0.807" ry="1.897" transform="matrix(0.958753, 0.28424, -0.28424, 0.958753, 119.200272, -69.954194)" bx:origin="0.536 0.515"/>
    <ellipse style="stroke: rgb(0, 0, 0); fill: rgb(239, 255, 64); stroke-width: 0px;" cx="208.321" cy="134.702" rx="0.954" ry="2.092" transform="matrix(0.986982, 0.16083, -0.16083, 0.986982, 102.503344, -56.178461)" bx:origin="0.536 0.515"/>
    <ellipse style="stroke: rgb(0, 0, 0); fill: rgb(239, 255, 64); stroke-width: 0px;" cx="208.321" cy="134.702" rx="0.954" ry="2.092" transform="matrix(0.999699, 0.024527, -0.024527, 0.999699, 88.58369, -48.065358)" bx:origin="0.536 0.515"/>
    <ellipse style="stroke: rgb(0, 0, 0); fill: rgb(239, 255, 64); stroke-width: 0px;" cx="226.443" cy="166.471" rx="0.881" ry="2.536" transform="matrix(0.991297, -0.131644, 0.131644, 0.991297, -30.334683, -20.502646)"/>
    <ellipse style="stroke: rgb(0, 0, 0); fill: rgb(239, 255, 64); stroke-width: 0px;" cx="231.3" cy="173.417" rx="0.823" ry="2.39" transform="matrix(0.986772, -0.162116, 0.162116, 0.986772, -24.395647, -21.239816)"/>
    <ellipse style="stroke: rgb(0, 0, 0); fill: rgb(239, 255, 64); stroke-width: 0px;" cx="231.3" cy="173.417" rx="0.828" ry="2.334" transform="matrix(0.99387, -0.110557, 0.110557, 0.99387, -25.162219, -34.111469)"/>
    <ellipse style="stroke: rgb(0, 0, 0); fill: rgb(239, 255, 64); stroke-width: 0px;" cx="231.3" cy="173.417" rx="0.875" ry="2.339" transform="matrix(0.997617, 0.068991, -0.068991, 0.997617, 23.182492, -83.404532)"/>
    <ellipse style="stroke: rgb(0, 0, 0); fill: rgb(239, 255, 64); stroke-width: 0px;" cx="208.321" cy="134.702" rx="1.001" ry="2.172" transform="matrix(0.99941, 0.034356, -0.034356, 0.99941, 41.367242, -24.487451)"/>
    <ellipse style="stroke: rgb(0, 0, 0); fill: rgb(239, 255, 64); stroke-width: 0px;" cx="226.443" cy="166.471" rx="0.881" ry="2.536" transform="matrix(0.991297, -0.131644, 0.131644, 0.991297, 6.409483, -16.917651)"/>
    <ellipse style="stroke: rgb(0, 0, 0); fill: rgb(239, 255, 64); stroke-width: 0px;" cx="231.3" cy="173.417" rx="0.823" ry="2.39" transform="matrix(0.986772, -0.162116, 0.162116, 0.986772, 12.348623, -17.654764)"/>
    <ellipse style="stroke: rgb(0, 0, 0); fill: rgb(239, 255, 64); stroke-width: 0px;" cx="231.3" cy="173.417" rx="0.828" ry="2.334" transform="matrix(0.99387, -0.110557, 0.110557, 0.99387, 11.582035, -30.52643)"/>
    <ellipse style="stroke: rgb(0, 0, 0); fill: rgb(239, 255, 64); stroke-width: 0px;" cx="231.3" cy="173.417" rx="0.875" ry="2.339" transform="matrix(0.997617, 0.068991, -0.068991, 0.997617, 59.926621, -79.819579)"/>
    <ellipse style="stroke: rgb(0, 0, 0); fill: rgb(239, 255, 64); stroke-width: 0px;" cx="203.83" cy="89.28" rx="1.144" ry="2.663"/>
    <ellipse style="stroke: rgb(0, 0, 0); fill: rgb(239, 255, 64); stroke-width: 0px;" cx="236.478" cy="180.362" rx="0.835" ry="2.238" transform="matrix(0.999958, -0.00913, 0.0066, 0.999981, -15.970101, -92.401303)"/>
    <ellipse style="stroke: rgb(0, 0, 0); fill: rgb(239, 255, 64); stroke-width: 0px;" cx="226.443" cy="166.471" rx="0.881" ry="2.536" transform="matrix(0.991297, -0.131644, 0.131644, 0.991297, -34.198919, -55.17014)"/>
    <ellipse style="stroke: rgb(0, 0, 0); fill: rgb(239, 255, 64); stroke-width: 0px;" cx="208.321" cy="134.702" rx="1.27" ry="2.891" transform="matrix(0.988355, -0.152163, 0.152163, 0.988355, -15.213392, 4.168564)"/>
    <ellipse style="stroke: rgb(0, 0, 0); fill: rgb(239, 255, 64); stroke-width: 0px;" cx="216.041" cy="94.002" rx="1.144" ry="2.663"/>
    <ellipse style="stroke: rgb(0, 0, 0); fill: rgb(239, 255, 64); stroke-width: 0px;" cx="208.321" cy="134.702" rx="1.001" ry="2.172" transform="matrix(0.99941, 0.034356, -0.034356, 0.99941, 45.245396, -32.459903)"/>
    <ellipse style="stroke: rgb(0, 0, 0); fill: rgb(239, 255, 64); stroke-width: 0px;" cx="208.321" cy="134.702" rx="0.807" ry="1.897" transform="matrix(0.986982, 0.16083, -0.16083, 0.986982, 69.340967, -31.799826)" bx:origin="0.536 0.515"/>
    <ellipse style="stroke: rgb(0, 0, 0); fill: rgb(239, 255, 64); stroke-width: 0px;" cx="208.321" cy="134.702" rx="0.807" ry="1.897" transform="matrix(0.986982, 0.16083, -0.16083, 0.986982, 77.22381, -36.308104)" bx:origin="0.536 0.515"/>
    <ellipse style="stroke: rgb(0, 0, 0); fill: rgb(239, 255, 64); stroke-width: 0px;" cx="208.321" cy="134.702" rx="0.807" ry="1.897" transform="matrix(0.986982, 0.16083, -0.16083, 0.986982, 83.243494, -41.941439)" bx:origin="0.536 0.515"/>
    <ellipse style="stroke: rgb(0, 0, 0); fill: rgb(239, 255, 64); stroke-width: 0px;" cx="208.321" cy="134.702" rx="0.807" ry="1.897" transform="matrix(0.986982, 0.16083, -0.16083, 0.986982, 90.522066, -83.197329)" bx:origin="0.536 0.515"/>
    <ellipse style="stroke: rgb(0, 0, 0); fill: rgb(239, 255, 64); stroke-width: 0px;" cx="208.321" cy="134.702" rx="0.807" ry="1.897" transform="matrix(0.958753, 0.28424, -0.28424, 0.958753, 120.000565, -111.519166)" bx:origin="0.536 0.515"/>
    <ellipse style="stroke: rgb(0, 0, 0); fill: rgb(239, 255, 64); stroke-width: 0px;" cx="231.3" cy="173.417" rx="0.823" ry="2.39" transform="matrix(0.986772, -0.162116, 0.162116, 0.986772, 13.149082, -59.219646)"/>
    <ellipse style="stroke: rgb(0, 0, 0); fill: rgb(239, 255, 64); stroke-width: 0px;" cx="208.321" cy="134.702" rx="0.807" ry="1.897" transform="matrix(0.986982, 0.16083, -0.16083, 0.986982, 84.043734, -83.506449)" bx:origin="0.536 0.515"/>
    <ellipse style="stroke: rgb(0, 0, 0); fill: rgb(239, 255, 64); stroke-width: 0px;" cx="208.321" cy="134.702" rx="0.807" ry="1.897" transform="matrix(0.986982, 0.16083, -0.16083, 0.986982, 99.347071, -64.34614)" bx:origin="0.536 0.515"/>
    <ellipse style="stroke: rgb(0, 0, 0); fill: rgb(239, 255, 64); stroke-width: 0px;" cx="208.321" cy="134.702" rx="0.807" ry="1.897" transform="matrix(0.986982, 0.16083, -0.16083, 0.986982, 104.513392, -72.066942)" bx:origin="0.536 0.515"/>
    <ellipse style="stroke: rgb(0, 0, 0); fill: rgb(239, 255, 64); stroke-width: 0px;" cx="208.321" cy="134.702" rx="0.807" ry="1.897" transform="matrix(0.986982, 0.16083, -0.16083, 0.986982, 92.015375, -66.742739)" bx:origin="0.536 0.515"/>
    <ellipse style="stroke: rgb(0, 0, 0); fill: rgb(239, 255, 64); stroke-width: 0px;" cx="208.321" cy="134.702" rx="1.061" ry="1.897" transform="matrix(0.986982, 0.16083, -0.16083, 0.986982, 100.401453, -81.475535)" bx:origin="0.536 0.515"/>
    <ellipse style="stroke: rgb(0, 0, 0); fill: rgb(239, 255, 64); stroke-width: 0px;" cx="208.321" cy="134.702" rx="0.807" ry="1.897" transform="matrix(0.986982, 0.16083, -0.16083, 0.986982, 98.035059, -72.376063)" bx:origin="0.536 0.515"/>
    <ellipse style="stroke: rgb(0, 0, 0); fill: rgb(239, 255, 64); stroke-width: 0px;" cx="208.321" cy="134.702" rx="0.807" ry="1.897" transform="matrix(0.986982, 0.16083, -0.16083, 0.986982, 62.250002, -87.299029)" bx:origin="0.536 0.515"/>
    <ellipse style="stroke: rgb(0, 0, 0); fill: rgb(239, 255, 64); stroke-width: 0px;" cx="208.321" cy="134.702" rx="0.954" ry="2.092" transform="matrix(0.986982, 0.16083, -0.16083, 0.986982, 107.158816, -64.10058)" bx:origin="0.536 0.515"/>
    <ellipse style="stroke: rgb(0, 0, 0); fill: rgb(239, 255, 64); stroke-width: 0px;" cx="208.321" cy="134.702" rx="1.102" ry="2.092" transform="matrix(0.993408, -0.114631, 0.114631, 0.993408, 49.38585, -3.512873)" bx:origin="0.436 0.433"/>
    <ellipse style="stroke: rgb(0, 0, 0); fill: rgb(239, 255, 64); stroke-width: 0px;" cx="203.802" cy="78.055" rx="1.204" ry="2.663"/>
    <ellipse style="stroke: rgb(0, 0, 0); fill: rgb(239, 255, 64); stroke-width: 0px;" cx="210.433" cy="70.076" rx="1.144" ry="2.663" bx:origin="0.623 0.558"/>
    <ellipse style="stroke: rgb(0, 0, 0); fill: rgb(239, 255, 64); stroke-width: 0px;" cx="208.321" cy="134.702" rx="1.039" ry="1.897" transform="matrix(0.986982, 0.16083, -0.16083, 0.986982, 74.218142, -84.521609)" bx:origin="0.536 0.515"/>
    <ellipse style="stroke: rgb(0, 0, 0); fill: rgb(239, 255, 64); stroke-width: 0px;" cx="208.321" cy="134.702" rx="0.807" ry="1.897" transform="matrix(0.986982, 0.16083, -0.16083, 0.986982, 62.633509, -75.893114)" bx:origin="0.536 0.515"/>
    <ellipse style="stroke: rgb(0, 0, 0); fill: rgb(239, 255, 64); stroke-width: 0px;" cx="226.443" cy="166.471" rx="0.881" ry="2.536" transform="matrix(0.991297, -0.131644, 0.131644, 0.991297, 6.409454, -16.917666)"/>
    <ellipse style="stroke: rgb(0, 0, 0); fill: rgb(239, 255, 64); stroke-width: 0px;" cx="208.321" cy="134.702" rx="0.807" ry="1.897" transform="matrix(0.986982, 0.16083, -0.16083, 0.986982, 49.751997, -81.974817)" bx:origin="0.536 0.515"/>
  </g>
  <g transform="matrix(1, 0, 0, 1, 0.236701, 0.102973)">
    <path style="stroke: rgb(0, 0, 0); fill: rgb(255, 255, 255);" d="M 224.099 124.587 C 224.099 132.94 234.322 145.382 243.699 142.387 C 247.441 141.192 252.512 137.258 254.254 133.755 C 254.881 132.494 255.845 131.642 256.578 130.518 C 256.925 129.987 258.327 128.979 257.694 128.979 C 255.689 128.979 253.667 127.546 251.609 127.201 C 246.816 126.4 241.459 127.11 236.919 125.671 C 235.786 125.311 224.082 125.591 224.082 124.624"/>
    <path style="fill: rgb(216, 216, 216); stroke: rgb(0, 0, 0);" d="M 229.365 136.263 C 229.687 136.203 232.272 135.19 232.407 135.315 C 232.674 135.561 233.791 137.979 234.536 137.283 C 234.892 136.95 234.603 136.082 234.942 135.765 C 235.437 135.302 245.953 135.164 246.5 135.671 C 247.074 136.2 246.5 138.669 246.5 137.919 C 246.5 135.776 249.855 137.341 250.86 137.341"/>
  </g>
  <g>
    <path style="stroke: rgb(0, 0, 0); fill: rgb(240, 240, 240);" d="M 155.731 240.111 C 155.731 240.111 162.262 219.653 166.603 217.457 C 167.76 216.871 172.824 213.653 174.442 215.27 C 175.882 216.71 182.064 228.297 178.429 231.89 C 177.926 232.386 174.858 238.655 175.738 239.535 C 178.559 242.356 191.339 251.922 187.067 260.365 C 184.554 265.33 183.734 270.196 179.975 273.911 C 172.531 281.266 147.922 278.734 144.557 268.933 C 142.237 262.176 145.76 250.499 149.869 246.341 C 151.064 245.131 154.066 244.838 154.066 242.917 L 155.731 240.111 Z"/>
    <path style="fill: rgb(216, 216, 216); stroke: rgb(0, 0, 0);" d="M 179.049 254.896 C 181.199 254.896 188.189 255.017 188.189 257.056"/>
    <path style="fill: rgb(216, 216, 216); stroke: rgb(0, 0, 0);" d="M 177.717 265.318 C 179.856 265.318 184.056 268.45 184.056 266.311"/>
  </g>
  <path style="stroke: rgb(0, 0, 0); fill: rgb(240, 240, 240);" d="M 418.045 370.928 C 418.045 370.928 415.557 367.515 412.725 363.56 C 411.969 362.506 412.57 352.167 413.306 351.163 C 415.663 347.945 423.168 333.855 432.164 336.789 C 437.454 338.515 442.388 338.583 446.633 341.732 C 455.038 347.966 456.29 372.674 447.117 377.495 C 440.793 380.818 428.715 379.118 423.979 375.691 C 422.601 374.695 419.215 370.711 418.13 370.878 L 418.045 370.928 Z"/>
  <path style="fill: rgb(216, 216, 216); stroke: rgb(0, 0, 0);" d="M 442.758 371.906 C 442.758 374.183 442.998 376.509 442.998 378.587"/>
  <path style="fill: rgb(216, 216, 216); stroke: rgb(0, 0, 0);" d="M 419.273 370.604 C 419.273 368.778 420.651 366.246 421.172 364.585 C 421.918 362.204 421.071 360.141 421.071 357.644"/>
  <path style="fill: rgb(216, 216, 216); stroke: rgb(0, 0, 0);" d="M 430.168 378.137 C 430.168 376.683 430.69 374.935 430.93 373.486 C 431.016 372.968 431.083 372.434 431.189 371.915 C 431.229 371.721 431.305 371.185 431.305 371.215"/>
  <path style="stroke: rgb(0, 0, 0); fill: none; stroke-width: 5px;" d="M 158.491 334.266 C 158.491 341.492 155.642 353.237 153.259 360.124 C 147.556 376.609 151.495 407.654 155.735 424.613 C 156.669 428.349 155.015 443.632 157.889 446.507"/>
  <path style="stroke: rgb(0, 0, 0); fill: none; stroke-width: 4px;" d="M 307.985 328.002 C 307.985 353.081 321.536 373.791 321.536 398.913 C 321.536 404.783 324.436 422.306 320.704 425.992 C 319.381 427.3 320.42 438.876 320.42 438.052"/>
  <path style="fill: rgb(216, 216, 216); stroke: rgb(0, 0, 0);" d="M 312.269 442.53 C 312.429 441.621 312.283 431.097 314.458 428.589 C 315.165 428.073 316.206 427.909 316.881 428.046 C 317.552 428.182 318.222 428.48 318.535 428.635 C 319.52 429.169 321.599 429.289 323.722 429.621 C 325.849 429.953 328.161 430.708 329.094 432.183 C 330.343 434.811 330.184 442.715 329.49 445.51 C 329.44 445.703 329.29 446.64 329.165 447.58 C 329.039 448.519 328.933 448.882 328.733 448.682 C 328.858 448.807 329.983 448.926 330.662 449.406 C 331.275 450.141 332.182 454.423 332.61 455.239 C 332.849 455.821 332.589 457.024 332.832 457.11 C 333.293 457.272 333.952 457.767 334.217 458.13 C 335.097 459.989 335.093 462.214 336.011 462.945 C 336.295 463.304 336.81 464.679 337.073 465.904 C 337.334 467.127 337.318 468.802 336.831 469.546 C 336.267 470.034 335.871 471.147 335.041 472.037 C 334.295 472.556 331.971 472.581 331.692 472.784 C 328.701 474.226 324.882 474.636 321.601 473.901 C 318.31 473.163 315.142 471.155 313.629 468.128 C 312.055 464.981 313.159 460.192 312.893 459.983 C 311.098 457.537 311.509 454.942 310.529 453.005 C 310.012 451.686 310.762 448.42 311.066 447.519 C 311.526 446.174 311.949 444.35 312.269 442.53 Z"/>
  <path style="fill: rgb(216, 216, 216); stroke: rgb(0, 0, 0);" d="M 152.947 443.288 C 153.382 441.889 161.27 444.798 161.496 445.439 C 162.391 447.962 161.716 450.757 161.728 453.417 C 161.73 454.065 160.872 454.799 161.285 455.317 C 162.786 457.193 168.796 466.828 164.971 469.299 C 161.168 471.754 154.887 470.928 152.463 466.959 C 151.6 465.545 152.353 463.684 152.033 462.082 C 151.137 457.606 151.805 446.962 152.947 443.288 Z"/>
  <path style="fill: rgb(216, 216, 216); stroke: rgb(0, 0, 0);" d="M 190.514 82.463 C 192.669 82.463 195.806 83.608 197.763 84.586 C 201.611 86.51 207.407 86.552 211.662 87.616 C 213.018 87.955 215.803 88.342 216.599 89.138 C 216.9 89.44 218.564 88.916 218.564 89.518"/>
  <path style="fill: rgb(216, 216, 216); stroke: rgb(0, 0, 0);" d="M 242.538 93.343 C 243.454 93.343 250.293 93.061 250.293 93.723"/>
  <path style="stroke: rgb(0, 0, 0); fill: none;" d="M 275.928 93.575 C 282.011 91.316 289.743 88.67 289.53 80.581"/>
  <ellipse style="fill: rgb(216, 216, 216); stroke: rgb(0, 0, 0);" cx="272.74" cy="256.785" rx="22.792" ry="27.782"/>
</svg>
